<mxfile host="app.diagrams.net" modified="2021-09-24T06:16:38.769Z" agent="5.0 (Windows NT 10.0; Win64; x64) AppleWebKit/537.36 (KHTML, like Gecko) Chrome/91.0.4472.124 Safari/537.36" etag="zbxCA9AHnz2G69_-Y6Bj" version="15.3.1" type="github">
  <diagram id="Jar_Axvc5VBfS0UySS8e" name="Page-1">
    <mxGraphModel dx="2585" dy="1385" grid="1" gridSize="10" guides="1" tooltips="1" connect="1" arrows="1" fold="1" page="1" pageScale="1" pageWidth="827" pageHeight="1169" background="none" math="0" shadow="0">
      <root>
        <mxCell id="0" />
        <mxCell id="1" parent="0" />
        <mxCell id="3h0gXUsgjWTDjEk_TyHu-8" value="frame" style="shape=umlFrame;whiteSpace=wrap;html=1;rounded=0;sketch=1;fontFamily=Comic Sans MS;fontColor=#5AA9E6;strokeColor=#FF6392;fillColor=#FFE45E;" vertex="1" parent="1">
          <mxGeometry x="170" y="560" width="300" height="200" as="geometry" />
        </mxCell>
        <UserObject label="%name%&lt;br&gt;&lt;i style=&quot;color: gray&quot;&gt;%position%&lt;/i&gt;&lt;br&gt;&lt;a href=&quot;mailto:%email%&quot;&gt;Email&lt;/a&gt;" name="Tessa Miller" position="CFO" location="Office 1" email="me@example.com" placeholders="1" link="https://www.draw.io" id="3h0gXUsgjWTDjEk_TyHu-43">
          <mxCell style="label;image=https://cdn3.iconfinder.com/data/icons/user-avatars-1/512/users-3-128.png;whiteSpace=wrap;html=1;rounded=1;fillColor=#dae8fc;strokeColor=#6c8ebf;sketch=1;fontFamily=Comic Sans MS;fontColor=#5AA9E6;" vertex="1" parent="1">
            <mxGeometry x="464" y="520" width="178" height="78" as="geometry" />
          </mxCell>
        </UserObject>
        <UserObject label="%name%&lt;br&gt;&lt;i style=&quot;color: gray&quot;&gt;%position%&lt;/i&gt;&lt;br&gt;&lt;a href=&quot;mailto:%email%&quot;&gt;Email&lt;/a&gt;" name="Edward Morrison" position="Brand Manager" location="Office 2" email="me@example.com" placeholders="1" link="https://www.draw.io" id="3h0gXUsgjWTDjEk_TyHu-44">
          <mxCell style="label;image=https://cdn3.iconfinder.com/data/icons/user-avatars-1/512/users-10-3-128.png;whiteSpace=wrap;html=1;rounded=1;fillColor=#d5e8d4;strokeColor=#82b366;sketch=1;fontFamily=Comic Sans MS;fontColor=#5AA9E6;" vertex="1" parent="1">
            <mxGeometry x="350" y="876" width="198" height="78" as="geometry" />
          </mxCell>
        </UserObject>
        <UserObject label="%name%&lt;br&gt;&lt;i style=&quot;color: gray&quot;&gt;%position%&lt;/i&gt;&lt;br&gt;&lt;a href=&quot;mailto:%email%&quot;&gt;Email&lt;/a&gt;" name="Alison Donovan" position="System Admin" location="Office 3" email="me@example.com" placeholders="1" link="https://www.draw.io" id="3h0gXUsgjWTDjEk_TyHu-45">
          <mxCell style="label;image=https://cdn3.iconfinder.com/data/icons/user-avatars-1/512/users-2-128.png;whiteSpace=wrap;html=1;rounded=1;fillColor=#d5e8d4;strokeColor=#82b366;sketch=1;fontFamily=Comic Sans MS;fontColor=#5AA9E6;" vertex="1" parent="1">
            <mxGeometry x="459" y="698" width="188" height="78" as="geometry" />
          </mxCell>
        </UserObject>
        <UserObject label="%name%&lt;br&gt;&lt;i style=&quot;color: gray&quot;&gt;%position%&lt;/i&gt;&lt;br&gt;&lt;a href=&quot;mailto:%email%&quot;&gt;Email&lt;/a&gt;" name="Evan Valet" position="HR Director" location="Office 4" email="me@example.com" placeholders="1" link="https://www.draw.io" id="3h0gXUsgjWTDjEk_TyHu-46">
          <mxCell style="label;image=https://cdn3.iconfinder.com/data/icons/user-avatars-1/512/users-9-2-128.png;whiteSpace=wrap;html=1;rounded=1;fillColor=#d5e8d4;strokeColor=#82b366;sketch=1;fontFamily=Comic Sans MS;fontColor=#5AA9E6;" vertex="1" parent="1">
            <mxGeometry x="588" y="876" width="168" height="78" as="geometry" />
          </mxCell>
        </UserObject>
        <mxCell id="3h0gXUsgjWTDjEk_TyHu-47" value="manages" style="curved=1;endArrow=blockThin;endFill=1;fontSize=11;" edge="1" parent="1" source="3h0gXUsgjWTDjEk_TyHu-43" target="3h0gXUsgjWTDjEk_TyHu-44">
          <mxGeometry relative="1" as="geometry">
            <Array as="points">
              <mxPoint x="497" y="610" />
              <mxPoint x="419" y="648" />
              <mxPoint x="419" y="826" />
              <mxPoint x="402" y="864" />
            </Array>
          </mxGeometry>
        </mxCell>
        <mxCell id="3h0gXUsgjWTDjEk_TyHu-48" value="manages" style="curved=1;endArrow=blockThin;endFill=1;fontSize=11;" edge="1" parent="1" source="3h0gXUsgjWTDjEk_TyHu-43" target="3h0gXUsgjWTDjEk_TyHu-45">
          <mxGeometry relative="1" as="geometry">
            <Array as="points">
              <mxPoint x="553" y="612" />
              <mxPoint x="553" y="686" />
            </Array>
          </mxGeometry>
        </mxCell>
        <mxCell id="3h0gXUsgjWTDjEk_TyHu-49" value="manages" style="curved=1;endArrow=blockThin;endFill=1;fontSize=11;" edge="1" parent="1" source="3h0gXUsgjWTDjEk_TyHu-43" target="3h0gXUsgjWTDjEk_TyHu-46">
          <mxGeometry relative="1" as="geometry">
            <Array as="points">
              <mxPoint x="609" y="610" />
              <mxPoint x="687" y="648" />
              <mxPoint x="687" y="826" />
              <mxPoint x="711.5" y="864" />
            </Array>
          </mxGeometry>
        </mxCell>
        <mxCell id="3h0gXUsgjWTDjEk_TyHu-50" value="" style="curved=1;fontSize=11;" edge="1" parent="1" source="3h0gXUsgjWTDjEk_TyHu-45" target="3h0gXUsgjWTDjEk_TyHu-44">
          <mxGeometry relative="1" as="geometry">
            <Array as="points">
              <mxPoint x="508.5" y="788" />
              <mxPoint x="496" y="864" />
            </Array>
          </mxGeometry>
        </mxCell>
        <mxCell id="3h0gXUsgjWTDjEk_TyHu-51" value="" style="curved=1;fontSize=11;" edge="1" parent="1" source="3h0gXUsgjWTDjEk_TyHu-45" target="3h0gXUsgjWTDjEk_TyHu-46">
          <mxGeometry relative="1" as="geometry">
            <Array as="points">
              <mxPoint x="597.5" y="788" />
              <mxPoint x="632.5" y="864" />
            </Array>
          </mxGeometry>
        </mxCell>
      </root>
    </mxGraphModel>
  </diagram>
</mxfile>
